<?xml version="1.0" standalone="no"?><!DOCTYPE svg PUBLIC "-//W3C//DTD SVG 1.1//EN" "http://www.w3.org/Graphics/SVG/1.1/DTD/svg11.dtd"><svg t="1556498286538" class="icon" style="" viewBox="0 0 1024 1024" version="1.1" xmlns="http://www.w3.org/2000/svg" p-id="1242" xmlns:xlink="http://www.w3.org/1999/xlink" width="32" height="32"><defs><style type="text/css"></style></defs><path d="M511.212566 1022.738263l-24.830525-13.797237c-133.600811-74.223468-232.41535-148.830677-302.0892-228.086765C98.004593 682.696684 54.256206 573.723783 54.256206 456.958406l0-1.823532L82.717422 56.685024l424.963715-56.684 3.53143-0.001023c0.148379 0 0.295735 0 0.448208 0.001023l3.088338 0 424.963715 56.684 28.461215 398.449851 0 1.823532c0 116.765377-43.753503 225.738277-130.040728 323.895855-69.673849 79.255065-168.484296 153.862273-302.085106 228.086765L511.212566 1022.738263zM156.522358 458.722586c0.795109 165.410284 113.726158 307.874973 354.690208 446.779579 240.96405-138.903583 353.900216-281.369296 354.693278-446.779579l-22.265096-311.682695L511.212566 102.69901l-332.429205 44.340881L156.522358 458.722586z" p-id="1243" fill="#d4237a"></path><path d="M380.733862 344.821443l135.738497 0 0-25.985838L362.249883 318.835605l0 313.730331L249.750669 632.565936l0-61.477166 12.674671 0L262.42534 169.260985l509.678118 0-26.935466 51.970652L362.249883 221.231637l0 39.294958 154.2235 0 0-24.717961 99.821473 0 0 24.717961 155.809625 0 0 58.30901L616.294856 318.835605l0 25.985838 135.740544 0 0 188.239222-93.487208 0L658.548192 397.426545 474.218 397.426545l0 135.63412-93.483114 0L380.734886 344.821443zM755.202533 632.565936c-81.863473-1.90028-147.885142-22.817682-189.08038-56.407708-40.670282 33.590026-106.691951 54.507428-188.555423 56.407708l0-70.983681c102.461603-7.606235 143.660934-32.32522 143.660934-85.563748L521.227664 420.244226l90.314958 0 0 55.774281c0 53.238528 41.72531 77.958536 143.660934 85.563748L755.203556 632.565936z" p-id="1244" fill="#d4237a"></path></svg>