<?xml version="1.0" standalone="no"?><!DOCTYPE svg PUBLIC "-//W3C//DTD SVG 1.1//EN" "http://www.w3.org/Graphics/SVG/1.1/DTD/svg11.dtd"><svg t="1556347118890" class="icon" style="" viewBox="0 0 1024 1024" version="1.1" xmlns="http://www.w3.org/2000/svg" p-id="1989" xmlns:xlink="http://www.w3.org/1999/xlink" width="48" height="48"><defs><style type="text/css"></style></defs><path d="M541.582222 998.968889c-15.928889 13.653333-43.235556 13.653333-59.164444 0C229.831111 780.515556 102.4 593.92 102.4 439.182222 102.4 195.697778 286.72 0 512 0s409.6 195.697778 409.6 439.182222c0 154.737778-127.431111 341.333333-380.017778 559.786667z m154.737778-746.382222h-168.391111c-6.826667-18.204444-13.653333-34.133333-20.48-47.786667l-36.408889 6.826667 20.48 40.96H318.577778v97.848889H352.711111v-65.991112h311.751111v65.991112h34.133334v-97.848889zM307.2 380.017778v31.857778h109.226667c-13.653333 25.031111-29.582222 50.062222-45.511111 75.093333 43.235556 13.653333 84.195556 29.582222 127.431111 47.786667-47.786667 36.408889-111.502222 54.613333-188.871111 56.888888l18.204444 29.582223c84.195556-2.275556 152.462222-27.306667 202.524444-72.817778 47.786667 22.755556 95.573333 47.786667 145.635556 75.093333l22.755556-29.582222c-50.062222-25.031111-97.848889-47.786667-143.36-68.266667 25.031111-27.306667 45.511111-65.991111 63.715555-113.777777h88.746667v-31.857778H473.315556c11.377778-20.48 22.755556-40.96 34.133333-63.715556l-34.133333-9.102222c-11.377778 25.031111-25.031111 50.062222-38.684445 75.093333H307.2z m147.911111 31.857778h127.431111c-15.928889 40.96-36.408889 72.817778-59.164444 100.124444-36.408889-15.928889-70.542222-27.306667-104.675556-38.684444 11.377778-18.204444 22.755556-38.684444 36.408889-61.44z" fill="#d81e06" p-id="1990"></path></svg>